<svg version="1.1" id="map-france-departements" xmlns="http://www.w3.org/2000/svg" xmlns:xlink="http://www.w3.org/1999/xlink"
	 x="0px" y="0px" viewBox="-220.2 68.7 128.8 101" style="enable-background:new -220.2 68.7 128.8 101;" xml:space="preserve">
<style type="text/css">
	.st0{fill:#FFFFFF;stroke:#999999;stroke-width:0.3;}
</style>
<g>
	<g>
		<path id="Cote-d_Or" class="st0" d="M-155.7,92l-5.2-4.7l-0.3-2l-2.6-0.5l0,0l-2.8-0.4l-3.4,2.9l-4.5,0.7l-1.6,1.5l-1.4,2.2
			l2.3,2.9l-0.3,2.8l-0.8,3.2l-4.9,7.7l-1,6l1.6,6.4l3,1l-0.5,2.9l2,1.9l4.2,1.3l4.9,3.2l4.1,4.7l6.5-3.2l11.2-1.2l0.8-3l4.6-4.9
			l0.9-6l1.3-1.1l-4.9-7.1l3.7-2.7l-0.1-2.4l-2.1-3.1l-5,3.5l-2.2-3.3l-7.2-1.5l-1.7-3.6l2.5-1.8L-155.7,92z"/>
		<title>Côte-d&apos;Or</title>
	</g>
	<g>
		<path id="Saone-et-Loire" class="st0" d="M-156.4,132.5l-6.5,3.2l-4.1-4.7l-4.9-3.2l-4.2-1.3l-2-1.9l-5,2.1l-1.3,5.7l3,5.1
			l-0.9,3.7l-8.3,4.3l-5.1-2.2l4.9,10l5.8,2.2l1.3,1.8l-0.3,4.2l-2.7,3.5v2.1l3.8,2.4l11.6-2.6l0.2-2.2l1.8-1.5l6.1-0.6l4.8,5.7
			l3.8-15.3l4.3,1.1l4-0.9l3.6,2.4l2-0.8l-0.6-3.9l2.2-3.6l-1.6-6.4l1.8-4.2l-6-2.9l-0.3-2.5L-156.4,132.5z"/>
		<title>Saône-et-Loire</title>
	</g>
	<g>
		<path id="Yonne" class="st0" d="M-214.6,70.8l-0.2,4.3l-3,4.2l5,5.5l0.3,4.3l-7.6,10l3.8,7.3h2.5l7.3,3.1l8-1l5,4.7l4.3-0.7
			l3.8,4.1l3.2-2.3l1-6l4.9-7.7l0.8-3.2l0.3-2.8l-2.3-2.9l1.4-2.2l-2.2-1.1l-9.3,1.3l-3.7-8.2l-9.3-11.6l-2.7-1.1L-214.6,70.8z"/>
		<title>Yonne</title>
	</g>
	<g>
		<path id="Nievre" class="st0" d="M-177.6,121.7l-3-1l-1.6-6.4l-3.2,2.3l-3.8-4.1l-4.3,0.7l-5-4.7l-8,1l-7.3-3.1h-2.5l-2.1,0.4
			l-1.1,1.8l1.4,4.9l-1.3,4.2l4.5,11.6l1.7,1.5l-0.2,4.3l-1,6.5l4.3,4.6l4.7,0.1l2.1-1.3l3.2,2.9l4.4-4.6l5.1,2.2l8.3-4.3l0.9-3.7
			l-3-5.1l1.3-5.7l5-2.1L-177.6,121.7z"/>
		<title>Nièvre</title>
	</g>
	<g>
		<path id="Doubs" class="st0" d="M-94.1,104.7l-4.5-1.9l-4.5-0.5l-0.3,2l-3.7,1.9l-2-0.6l-22.8,12.4l3.8,5.7l1.3,6.1l2.3-0.7
			l4.5,7.2l5,3.6l-4.3,7.3l2.2,2.3l0.8-2.4l8.6-8l-0.6-7.2l6.4-4.3l10.2-14.3l-3.2-2.7l0.9-2.4L-94.1,104.7z"/>
		<title>Doubs</title>
	</g>
	<g>
		<path id="Jura" class="st0" d="M-131.9,118h-4.5l-1.2-1.7l-1.3,1.1l-0.9,6l-4.6,4.9l-0.8,3l0.3,2.5l6,2.9l-1.8,4.2l1.6,6.4
			l-2.2,3.6l0.6,3.9l-2,0.8l5.4,8.1l2.3-0.1l3-3.2l2.4,1.2l0.3,2l6.9-2.5l3.5-4.9l1.8-6.7l-2.2-2.3l4.3-7.3l-5-3.6l-4.5-7.2
			l-2.3,0.7l-1.3-6.1L-131.9,118z"/>
		<title>Jura</title>
	</g>
	<g>
		<path id="Haute-Saone" class="st0" d="M-137,98.2l-4,2.8l2.1,3.1l0.1,2.4l-3.7,2.7l6.1,8.8h4.5l22.8-12.4l2,0.6l3.7-1.9l0.3-2
			l4.5,0.5l-1.8-7.4l1.7-4.1l-6.4-4.6l-3.7,1.6l-3.4-3.1l-4.4,1.7l-5-3.6l-6,4.2l-0.1,1.5l-1.6,2.3l-2.1-0.3l-1.6,1.8l-0.2,6.1
			l-2.3,0.8L-137,98.2z"/>
		<title>Haute-Saône</title>
	</g>
</g>
</svg>
